inDegrees=no
num_controls=7
num_derivatives=13
num_iterations=148
num_multipliers=7
num_parameters=0
num_slacks=7
num_states=26
objective=5.628959
objective_accelerations=0.414098
objective_balance=0.054053
objective_effort=0.385727
objective_height=4.679923
objective_ligament=0.095158
solver_duration=1590.676006
status=Solve_Succeeded
success=true
DataType=double
version=3
OpenSimVersion=4.4-2022-07-23-0e9fedc
endheader
time	/jointset/ground_pelvis/pelvis_tilt/value	/jointset/ground_pelvis/pelvis_tx/value	/jointset/ground_pelvis/pelvis_ty/value	/jointset/hip_l/hip_flexion_l/value	/jointset/hip_l/hip_adduction_l/value	/jointset/hip_l/hip_rotation_l/value	/jointset/back/lumbar_extension/value	/jointset/patellofemoral_l/patellar_flexion_l/value	/jointset/knee_l/knee_flexion_l/value	/jointset/knee_l/knee_adduction_l/value	/jointset/knee_l/knee_rotation_l/value	/jointset/ankle_l/ankle_angle_l/value	/jointset/subtalar_l/subtalar_angle_l/value	/jointset/ground_pelvis/pelvis_tilt/speed	/jointset/ground_pelvis/pelvis_tx/speed	/jointset/ground_pelvis/pelvis_ty/speed	/jointset/hip_l/hip_flexion_l/speed	/jointset/hip_l/hip_adduction_l/speed	/jointset/hip_l/hip_rotation_l/speed	/jointset/back/lumbar_extension/speed	/jointset/patellofemoral_l/patellar_flexion_l/speed	/jointset/knee_l/knee_flexion_l/speed	/jointset/knee_l/knee_adduction_l/speed	/jointset/knee_l/knee_rotation_l/speed	/jointset/ankle_l/ankle_angle_l/speed	/jointset/subtalar_l/subtalar_angle_l/speed	/forceset/tau_hip_flexion_l	/forceset/tau_hip_adduction_l	/forceset/tau_hip_rotation_l	/forceset/tau_knee_flexion_l	/forceset/tau_ankle_angle_l	/forceset/tau_subtalar_angle_l	/forceset/tau_lumbar_extension	lambda_cid13_p0	lambda_cid13_p1	lambda_cid13_p2	lambda_cid13_p3	lambda_cid13_p4	lambda_cid13_p5	lambda_cid14_p0	/jointset/ground_pelvis/pelvis_tilt/accel	/jointset/ground_pelvis/pelvis_tx/accel	/jointset/ground_pelvis/pelvis_ty/accel	/jointset/hip_l/hip_flexion_l/accel	/jointset/hip_l/hip_adduction_l/accel	/jointset/hip_l/hip_rotation_l/accel	/jointset/back/lumbar_extension/accel	/jointset/patellofemoral_l/patellar_flexion_l/accel	/jointset/knee_l/knee_flexion_l/accel	/jointset/knee_l/knee_adduction_l/accel	/jointset/knee_l/knee_rotation_l/accel	/jointset/ankle_l/ankle_angle_l/accel	/jointset/subtalar_l/subtalar_angle_l/accel	gamma_cid13_p0	gamma_cid13_p1	gamma_cid13_p2	gamma_cid13_p3	gamma_cid13_p4	gamma_cid13_p5	gamma_cid14_p0
1	0.05270368587905592	0.01352009215739064	0.7508545747655758	0.9288077103642974	-0.3432015206249286	0.03175396574501353	-0.9599310457792706	1.293104642403098	1.293104642403294	-0.08111388239647002	-0.1745313733860788	0.4053401793772435	0.1050087040543462	0.1207798310977889	0.03149178606375894	0.06013046801549748	-0.3099777468463917	-0.003860390432703287	-0.06734326370714888	-0.002948555191246528	-0.1611848997728998	-0.1611848997729003	-0.0001555874675521831	-2.541174469330057e-06	0.01843276930150256	0.005255741120044369	-0.2606450345780167	0.0581262690474581	-0.002064397038521864	-0.3753546441411837	-0.07708246222170967	0.0297791560134365	0.3668908233115067	-74.0036417502692	0.6498441382961427	-1.272301961984645	19.59441825698993	-781.8013638147395	-68.8703766837925	-0.09601014666471558	0.240369580764334	-0.1064765034801425	1.178488269718185	-3.321902057251066	0.09349298990331739	-1.500265422208028	0.5615083508882135	-4.578022681153476	-4.578022681154637	-0.2115633740084752	-0.0115298582026937	-1.828586042693185	-0.8079118341067447	-9.640843944336545e-09	2.7772370445195e-08	4.718512545426074e-08	1.029902382881948e-08	-2.486475492812061e-08	8.681449902981601e-08	-1.148546161505787e-08
1.01	0.05392288579305718	0.01382984674701945	0.7515145986065014	0.9255427987089526	-0.3432349280202596	0.03100487811554222	-0.9599310266418032	1.291264385081282	1.291264385081558	-0.08112446022975904	-0.1745312699229177	0.4054334390346113	0.1050218929940456	0.1230327622958245	0.03047500533749494	0.071864694852453	-0.3429781560929639	-0.002816910834376591	-0.08246829276390152	0.003051149255022579	-0.2068593889033001	-0.2068593889033007	-0.001960932304148243	2.083478498150992e-05	0.0002287661826182517	-0.002605875159905347	-0.2602971918370946	0.05829657324829363	-0.002130464689236198	-0.374946406558027	-0.07729086809766375	0.02988668556626986	0.3670766365020854	-74.05352644964309	0.5904835516635626	-1.238399804612782	19.34650280489951	-781.8537372540004	-68.91747134089407	-0.1035373874615429	0.2136453222993575	-0.09689445478578364	1.169442861291361	-3.285148124684789	0.1103960297316	-1.517739043208623	0.6340164783745544	-4.561082510788335	-4.561082510787743	-0.1651694796095192	0.008928436710699919	-1.814867652485555	-0.7734860284063021	-1.591812980468262e-08	1.838307806814931e-08	7.179536652828245e-08	1.683862443834382e-08	-3.109619261751198e-08	8.471506032144386e-08	-1.578221790325527e-08
1.02	0.0551637931056316	0.01412991040986786	0.7522916753099166	0.921948675407781	-0.3432577765026398	0.03010471671635327	-0.9598680474626391	1.288967598771803	1.288967598772192	-0.08115312139963343	-0.1745310012776264	0.4053449466195911	0.1049568258702513	0.1251213108128791	0.02955360070767553	0.08354104051352214	-0.3758200759925664	-0.001748607838678044	-0.09755801765264846	0.00964345317641307	-0.2524906973059018	-0.2524906973058971	-0.003772254785721396	3.049529209351477e-05	-0.01791764517623951	-0.01039547157854621	-0.2599493490966091	0.05846687744909332	-0.002196532340070336	-0.3745381689749546	-0.07749927397358439	0.02999421511906628	0.3672624496923189	-74.11718407383567	0.5342665865423528	-1.20583559246827	19.15755508506828	-782.0906725363809	-68.95278983397725	-0.1136216929126422	0.2074930445681129	-0.08740128419117102	1.166912034540908	-3.29020418785711	0.09845766937761156	-1.493204588606965	0.6800282459122273	-4.569386535593734	-4.569386535593804	-0.2127589030039183	-0.01427294867061939	-1.817067690687807	-0.793507861845045	-2.021481445390247e-08	5.432991554660858e-09	9.583041429257161e-08	1.892984564794549e-08	-3.603446009673017e-08	7.492669698720872e-08	-1.964654033937383e-08
1.03	0.05642462190488501	0.01442133831817244	0.7531851717386108	0.9180270347615934	-0.3432698220808192	0.02905393761463738	-0.9597355672305284	1.286214823830414	1.286214823830517	-0.08119998305982216	-0.1745306801121503	0.4050754327439317	0.1048143300359066	0.1270021824680135	0.02875816402538594	0.09514314030743511	-0.4084701673843849	-0.0006564342592479579	-0.1125866305276069	0.01701413570405887	-0.2980463475125919	-0.298046347512588	-0.00560169424524133	3.280305318505464e-05	-0.03595985893632581	-0.01808035220208495	-0.2598803214917592	0.0586543606893896	-0.002290140850455822	-0.3737428902070123	-0.07764425269321697	0.03015918707906742	0.3678128235277756	-74.14278825728768	0.4306258833112886	-1.147647231550757	18.7648633305959	-782.2564210279037	-69.0075060356497	-0.1267154963289085	0.172042954623028	-0.07168319168262731	1.154584992356477	-3.246731088518015	0.1151958033100398	-1.506034187306337	0.7898196240949887	-4.545958019506142	-4.545958019506305	-0.1682901936639165	0.007367326450396379	-1.794009825694118	-0.7524894383714011	-2.449128888668224e-08	-7.553429592872955e-09	1.198595927373737e-07	2.097567523101732e-08	-4.095953196155884e-08	6.505987523842392e-08	-2.350645018516505e-08
